<?xml version="1.0" encoding="UTF-8" standalone="no"?><!DOCTYPE svg PUBLIC "-//W3C//DTD SVG 1.1//EN" "http://www.w3.org/Graphics/SVG/1.1/DTD/svg11.dtd"><svg width="100%" height="100%" viewBox="0 0 335 343" version="1.1" xmlns="http://www.w3.org/2000/svg" xmlns:xlink="http://www.w3.org/1999/xlink" xml:space="preserve" xmlns:serif="http://www.serif.com/" style="fill-rule:evenodd;clip-rule:evenodd;stroke-linejoin:round;stroke-miterlimit:2;"><path d="M304.875,336.728c2.196,1.438 4.8,2.167 7.738,2.167c2.938,0 5.542,-0.729 7.742,-2.167c2.208,-1.442 3.954,-3.512 5.183,-6.15c1.258,-2.688 1.892,-5.854 1.892,-9.417c0,-3.562 -0.633,-6.721 -1.887,-9.387c-1.233,-2.621 -2.983,-4.696 -5.196,-6.158c-2.196,-1.454 -4.8,-2.192 -7.733,-2.192c-2.933,0 -5.525,0.729 -7.704,2.163c-2.196,1.45 -3.942,3.512 -5.196,6.137c-1.271,2.662 -1.917,5.837 -1.917,9.438c0,3.596 0.637,6.775 1.892,9.442c1.233,2.621 2.979,4.683 5.188,6.125m29.488,-15.567c0,3.037 -0.55,5.921 -1.642,8.558c-1.096,2.642 -2.646,4.979 -4.608,6.938c-1.971,1.971 -4.304,3.521 -6.938,4.608c-2.642,1.092 -5.521,1.646 -8.562,1.646c-3.042,0 -5.921,-0.554 -8.558,-1.646c-2.633,-1.088 -4.971,-2.638 -6.942,-4.608c-1.967,-1.967 -3.517,-4.3 -4.604,-6.938c-1.096,-2.637 -1.646,-5.517 -1.646,-8.558c0,-3.046 0.55,-5.925 1.646,-8.562c1.088,-2.633 2.637,-4.971 4.604,-6.938c1.967,-1.967 4.304,-3.517 6.942,-4.608c5.275,-2.183 11.833,-2.188 17.117,0c2.642,1.092 4.975,2.642 6.942,4.608c1.962,1.962 3.512,4.296 4.608,6.938c1.092,2.642 1.642,5.521 1.642,8.562m-66.342,-0.879c-1.604,-1.096 -3.283,-2.15 -5.004,-3.146c-1.429,-0.804 -2.771,-1.642 -3.992,-2.487c-1.137,-0.783 -2.079,-1.679 -2.796,-2.658c-0.638,-0.879 -0.946,-1.917 -0.946,-3.171c0,-1.654 0.558,-2.925 1.708,-3.879c1.221,-1.021 2.829,-1.517 4.921,-1.517c2.962,0 5.317,0.996 7.204,3.046l0.396,0.433l2.146,0l0.471,-5.25l-0.796,-0.413c-1.062,-0.55 -2.487,-0.988 -4.354,-1.333c-6.046,-1.113 -10.796,-0.342 -14.062,2.425c-2.363,1.996 -3.558,4.65 -3.558,7.892c0,2.171 0.55,4.079 1.637,5.662c1.017,1.488 2.342,2.808 3.921,3.925c1.496,1.054 3.075,2.067 4.696,3.008c2.233,1.296 4.004,2.508 5.262,3.608c1.196,1.046 2.054,2.062 2.55,3.029c0.479,0.929 0.725,1.946 0.725,3.033c0,1.975 -0.625,3.492 -1.912,4.637c-1.333,1.188 -3.058,1.767 -5.279,1.767c-1.625,0 -3.292,-0.329 -4.958,-0.975c-1.679,-0.65 -3.208,-1.571 -4.537,-2.738l-0.379,-0.325l-2.046,0l-0.562,5.633l1.021,0.333c1.875,0.617 3.879,1.121 5.946,1.504c2.096,0.388 3.95,0.583 5.517,0.583c2.554,0 4.842,-0.5 6.8,-1.492c1.992,-1.004 3.558,-2.425 4.658,-4.225c1.1,-1.796 1.654,-3.887 1.654,-6.221c0,-2.542 -0.596,-4.708 -1.771,-6.442c-1.121,-1.646 -2.562,-3.075 -4.279,-4.25m-41.675,0c-1.604,-1.096 -3.283,-2.15 -5.004,-3.146c-1.429,-0.804 -2.771,-1.642 -3.992,-2.487c-1.137,-0.783 -2.079,-1.679 -2.792,-2.658c-0.642,-0.879 -0.95,-1.917 -0.95,-3.171c0,-1.654 0.558,-2.925 1.704,-3.879c1.225,-1.021 2.837,-1.517 4.925,-1.517c2.963,0 5.317,0.996 7.204,3.046l0.396,0.433l2.146,0l0.471,-5.25l-0.796,-0.413c-1.063,-0.55 -2.488,-0.988 -4.354,-1.333c-6.042,-1.113 -10.796,-0.342 -14.062,2.425c-2.363,1.996 -3.558,4.65 -3.558,7.892c0,2.171 0.55,4.079 1.638,5.662c1.021,1.488 2.338,2.808 3.921,3.925c1.496,1.054 3.075,2.067 4.696,3.008c2.233,1.296 4.004,2.508 5.263,3.608c1.196,1.046 2.054,2.062 2.55,3.029c0.479,0.929 0.725,1.946 0.725,3.033c0,1.975 -0.625,3.492 -1.912,4.637c-1.329,1.188 -3.058,1.767 -5.279,1.767c-1.625,0 -3.292,-0.329 -4.958,-0.975c-1.679,-0.65 -3.204,-1.571 -4.542,-2.738l-0.375,-0.325l-2.046,0l-0.562,5.633l1.021,0.333c1.879,0.617 3.879,1.121 5.95,1.504c2.092,0.388 3.946,0.583 5.512,0.583c2.554,0 4.842,-0.5 6.8,-1.492c1.992,-1.004 3.558,-2.425 4.658,-4.225c1.1,-1.796 1.654,-3.887 1.654,-6.221c0,-2.542 -0.596,-4.708 -1.771,-6.442c-1.121,-1.646 -2.558,-3.075 -4.279,-4.25m-49.812,17.967l0,-15.988c0.546,0.029 1.233,0.067 2.062,0.117l10.613,0.65l0,-5.417l-10.613,0.646c-0.829,0.05 -1.517,0.088 -2.062,0.117l0,-14.296c0.492,0.05 1.133,0.125 1.971,0.233l11.321,1.488l0,-5.604l-19.775,0l0,41.929l19.946,0l0,-5.6l-11.438,1.483c-0.858,0.117 -1.517,0.192 -2.025,0.242m-42.429,-4.988l-14.513,-33.067l-7.137,0l19.025,42.717l2.971,0l19.025,-42.717l-7.196,0l-12.175,33.067Zm-64.687,3.467c2.2,1.438 4.804,2.167 7.742,2.167c2.938,0 5.537,-0.729 7.737,-2.167c2.208,-1.442 3.954,-3.512 5.188,-6.15c1.254,-2.688 1.892,-5.854 1.892,-9.417c0,-3.562 -0.637,-6.721 -1.892,-9.387c-1.233,-2.621 -2.983,-4.696 -5.192,-6.158c-2.2,-1.454 -4.8,-2.192 -7.733,-2.192c-2.933,0 -5.529,0.729 -7.708,2.163c-2.196,1.45 -3.942,3.512 -5.196,6.137c-1.271,2.662 -1.917,5.842 -1.917,9.438c0,3.596 0.638,6.775 1.896,9.442c1.233,2.621 2.975,4.683 5.183,6.125m27.85,-24.125c1.088,2.637 1.642,5.517 1.642,8.558c0,3.037 -0.554,5.921 -1.642,8.558c-1.092,2.637 -2.646,4.971 -4.612,6.938c-1.967,1.971 -4.3,3.521 -6.938,4.608c-2.637,1.092 -5.517,1.646 -8.558,1.646c-3.046,0 -5.925,-0.554 -8.562,-1.646c-2.633,-1.088 -4.971,-2.638 -6.938,-4.608c-1.967,-1.967 -3.517,-4.3 -4.608,-6.938c-1.092,-2.637 -1.642,-5.517 -1.642,-8.558c0,-3.046 0.55,-5.925 1.642,-8.558c1.092,-2.642 2.642,-4.975 4.608,-6.942c1.963,-1.967 4.3,-3.517 6.942,-4.608c5.271,-2.183 11.833,-2.188 17.117,0c2.642,1.092 4.975,2.642 6.938,4.608c1.967,1.967 3.521,4.3 4.612,6.942m-67.879,-12.408l6.583,0l-1.496,42.717l-2.592,0l-26.454,-31.979l1.154,31.192l-6.583,0l1.496,-42.717l2.592,0l26.454,31.979l-1.154,-31.192Z" style="fill:#13266f;fill-rule:nonzero;"/><path d="M179.675,127.55l0,48.112l-41.587,0c-4.633,0 -8.388,3.754 -8.388,8.387l0,69.938c0,6.867 -7.8,10.825 -13.342,6.771l-66.379,-48.529l-46.542,-34.054c-2.162,-1.579 -3.438,-4.096 -3.438,-6.767l0,-163.004c0,-6.867 7.8,-10.825 13.342,-6.771l116.358,85.092l46.542,34.054c2.158,1.583 3.433,4.096 3.433,6.771" style="fill:#13266f;fill-rule:nonzero;"/><path d="M204.663,175.664l0,-167.258c0,-6.867 7.796,-10.825 13.338,-6.771l112.925,82.579c2.158,1.579 3.433,4.096 3.433,6.771l0,162.996c0,6.867 -7.8,10.825 -13.342,6.767l-36.633,-26.804l-79.721,-58.279Z" style="fill:#13266f;fill-rule:nonzero;"/></svg>