<?xml version="1.0" encoding="UTF-8" standalone="no"?><!DOCTYPE svg PUBLIC "-//W3C//DTD SVG 1.1//EN" "http://www.w3.org/Graphics/SVG/1.1/DTD/svg11.dtd"><svg width="100%" height="100%" viewBox="0 0 617 107" version="1.1" xmlns="http://www.w3.org/2000/svg" xmlns:xlink="http://www.w3.org/1999/xlink" xml:space="preserve" xmlns:serif="http://www.serif.com/" style="fill-rule:evenodd;clip-rule:evenodd;stroke-linejoin:round;stroke-miterlimit:2;"><path d="M226.395,46.027l-34.004,-41.104l-3.333,0l-1.921,54.908l8.463,0l-1.488,-40.096l34.008,41.104l3.329,0l1.925,-54.908l-8.462,0l1.483,40.096Z" style="fill:#030405;fill-rule:nonzero;"/><path d="M269.7,45.02c-1.613,-3.429 -2.433,-7.513 -2.433,-12.138c0,-4.621 0.829,-8.704 2.467,-12.129c1.604,-3.371 3.854,-6.025 6.675,-7.888c2.804,-1.846 6.137,-2.779 9.908,-2.779c3.771,0 7.113,0.946 9.938,2.817c2.842,1.879 5.092,4.542 6.675,7.912c1.617,3.429 2.433,7.492 2.433,12.067c0,4.579 -0.817,8.65 -2.433,12.104c-1.588,3.392 -3.829,6.05 -6.667,7.908c-2.825,1.846 -6.171,2.783 -9.946,2.783c-3.779,0 -7.125,-0.938 -9.95,-2.783c-2.838,-1.858 -5.079,-4.504 -6.667,-7.875m36.538,-32.058c-2.525,-2.529 -5.529,-4.521 -8.921,-5.925c-6.792,-2.808 -15.225,-2.808 -22.004,0c-3.392,1.404 -6.396,3.396 -8.921,5.925c-2.525,2.525 -4.521,5.529 -5.925,8.921c-1.4,3.387 -2.108,7.088 -2.108,11c0,3.912 0.708,7.617 2.108,11c1.404,3.396 3.4,6.396 5.925,8.921c2.529,2.529 5.529,4.525 8.921,5.925c3.387,1.4 7.092,2.112 11.004,2.112c3.908,0 7.608,-0.712 11,-2.112c3.392,-1.4 6.392,-3.396 8.921,-5.925c2.529,-2.525 4.521,-5.525 5.925,-8.921c1.4,-3.392 2.113,-7.092 2.113,-11c0,-3.908 -0.712,-7.608 -2.113,-11c-1.404,-3.392 -3.396,-6.396 -5.925,-8.921" style="fill:#030405;fill-rule:nonzero;"/><path d="M359.515,48.438l-18.654,-42.508l-9.175,-0l24.458,54.912l3.812,0l24.458,-54.912l-9.25,-0l-15.65,42.508Z" style="fill:#030405;fill-rule:nonzero;"/><path d="M414.052,54.848l0,-20.55c0.704,0.038 1.587,0.088 2.65,0.154l13.646,0.829l0,-6.962l-13.646,0.833c-1.062,0.062 -1.946,0.112 -2.65,0.15l0,-18.375c0.633,0.062 1.458,0.158 2.533,0.3l14.55,1.913l0,-7.208l-25.417,0l0,53.9l25.642,0l0,-7.204l-14.704,1.912c-1.104,0.146 -1.954,0.246 -2.604,0.308" style="fill:#030405;fill-rule:nonzero;"/><path d="M478.08,31.751c-2.062,-1.408 -4.221,-2.762 -6.429,-4.042c-1.837,-1.038 -3.567,-2.113 -5.137,-3.2c-1.458,-1.004 -2.667,-2.158 -3.587,-3.417c-0.821,-1.125 -1.221,-2.458 -1.221,-4.075c0,-2.125 0.717,-3.758 2.196,-4.988c1.571,-1.308 3.642,-1.946 6.329,-1.946c3.808,0 6.833,1.279 9.258,3.917l0.508,0.554l2.758,0l0.604,-6.746l-1.021,-0.529c-1.367,-0.712 -3.2,-1.271 -5.6,-1.717c-7.767,-1.433 -13.871,-0.437 -18.071,3.117c-3.037,2.562 -4.575,5.975 -4.575,10.142c0,2.796 0.708,5.242 2.1,7.279c1.312,1.917 3.012,3.612 5.046,5.046c1.921,1.358 3.95,2.658 6.037,3.867c2.867,1.667 5.146,3.225 6.762,4.642c1.533,1.342 2.638,2.65 3.279,3.892c0.617,1.192 0.925,2.504 0.925,3.896c0,2.542 -0.8,4.492 -2.454,5.967c-1.712,1.525 -3.929,2.267 -6.787,2.267c-2.083,0 -4.229,-0.421 -6.371,-1.254c-2.158,-0.833 -4.121,-2.017 -5.838,-3.513l-0.483,-0.425l-2.633,0l-0.721,7.246l1.312,0.429c2.413,0.792 4.988,1.442 7.646,1.933c2.692,0.496 5.075,0.746 7.088,0.746c3.287,0 6.225,-0.642 8.742,-1.913c2.558,-1.296 4.575,-3.121 5.992,-5.433c1.408,-2.308 2.125,-5 2.125,-7.996c0,-3.267 -0.771,-6.05 -2.279,-8.283c-1.442,-2.112 -3.292,-3.954 -5.5,-5.462" style="fill:#030405;fill-rule:nonzero;"/><path d="M531.649,31.751c-2.062,-1.408 -4.221,-2.762 -6.429,-4.042c-1.837,-1.038 -3.567,-2.113 -5.133,-3.2c-1.462,-1.004 -2.671,-2.158 -3.592,-3.417c-0.821,-1.125 -1.221,-2.458 -1.221,-4.075c0,-2.125 0.717,-3.758 2.196,-4.988c1.575,-1.308 3.642,-1.946 6.329,-1.946c3.808,0 6.833,1.279 9.258,3.917l0.508,0.554l2.758,0l0.604,-6.746l-1.021,-0.529c-1.367,-0.712 -3.2,-1.271 -5.6,-1.717c-7.767,-1.433 -13.871,-0.437 -18.071,3.117c-3.037,2.562 -4.575,5.975 -4.575,10.142c0,2.796 0.708,5.242 2.1,7.279c1.312,1.917 3.012,3.612 5.046,5.046c1.921,1.358 3.95,2.658 6.038,3.867c2.867,1.667 5.146,3.225 6.763,4.642c1.533,1.342 2.637,2.65 3.279,3.892c0.617,1.192 0.925,2.504 0.925,3.896c0,2.542 -0.8,4.492 -2.454,5.967c-1.713,1.525 -3.929,2.267 -6.788,2.267c-2.083,0 -4.229,-0.421 -6.375,-1.254c-2.158,-0.833 -4.117,-2.017 -5.833,-3.513l-0.483,-0.425l-2.629,0l-0.725,7.246l1.312,0.429c2.413,0.792 4.987,1.442 7.646,1.933c2.692,0.496 5.075,0.746 7.087,0.746c3.288,0 6.225,-0.642 8.742,-1.913c2.558,-1.296 4.575,-3.121 5.992,-5.433c1.408,-2.308 2.125,-5 2.125,-7.996c0,-3.267 -0.771,-6.05 -2.279,-8.283c-1.442,-2.112 -3.292,-3.954 -5.5,-5.462" style="fill:#030405;fill-rule:nonzero;"/><path d="M572.353,45.02c-1.612,-3.429 -2.429,-7.513 -2.429,-12.138c0,-4.625 0.825,-8.708 2.462,-12.129c1.608,-3.375 3.854,-6.025 6.675,-7.888c2.804,-1.846 6.137,-2.779 9.908,-2.779c3.767,0 7.112,0.946 9.938,2.817c2.846,1.879 5.092,4.542 6.679,7.912c1.612,3.429 2.429,7.492 2.429,12.067c0,4.579 -0.817,8.65 -2.433,12.104c-1.583,3.392 -3.825,6.05 -6.667,7.908c-2.825,1.846 -6.171,2.783 -9.946,2.783c-3.779,0 -7.125,-0.938 -9.95,-2.783c-2.837,-1.858 -5.079,-4.504 -6.667,-7.875m42.462,-23.142c-1.408,-3.396 -3.4,-6.396 -5.925,-8.917c-2.529,-2.529 -5.529,-4.521 -8.921,-5.925c-6.792,-2.808 -15.225,-2.808 -22.004,0c-3.392,1.404 -6.392,3.396 -8.921,5.925c-2.529,2.529 -4.521,5.529 -5.921,8.917c-1.404,3.392 -2.117,7.092 -2.117,11.004c0,3.912 0.712,7.617 2.117,11c1.4,3.392 3.392,6.392 5.921,8.921c2.529,2.533 5.533,4.525 8.921,5.925c3.388,1.4 7.092,2.112 11.004,2.112c3.908,0 7.608,-0.712 11.004,-2.112c3.383,-1.4 6.383,-3.396 8.917,-5.925c2.525,-2.521 4.517,-5.521 5.925,-8.921c1.4,-3.392 2.113,-7.092 2.113,-11c0,-3.908 -0.713,-7.608 -2.113,-11.004" style="fill:#030405;fill-rule:nonzero;"/><rect x="523.73" y="92.294" width="31.067" height="5.592" style="fill:#0c9344;"/><rect x="554.797" y="92.294" width="31.067" height="5.592" style="fill:#f3f2f3;"/><rect x="585.864" y="92.294" width="31.062" height="5.592" style="fill:#f0504a;"/><path d="M193.603,101.38c-0.929,0 -1.792,-0.158 -2.579,-0.471c-0.787,-0.312 -1.471,-0.75 -2.05,-1.317c-0.575,-0.562 -1.025,-1.229 -1.35,-1.996c-0.325,-0.763 -0.488,-1.6 -0.488,-2.508c0,-0.904 0.162,-1.742 0.488,-2.508c0.325,-0.767 0.779,-1.429 1.358,-1.996c0.583,-0.567 1.271,-1.004 2.062,-1.317c0.787,-0.312 1.646,-0.467 2.575,-0.467c0.896,0 1.737,0.15 2.529,0.45c0.788,0.3 1.454,0.75 1.996,1.35l-0.833,0.829c-0.504,-0.517 -1.062,-0.892 -1.675,-1.121c-0.613,-0.229 -1.271,-0.346 -1.979,-0.346c-0.742,0 -1.433,0.129 -2.067,0.383c-0.638,0.254 -1.192,0.612 -1.663,1.079c-0.471,0.462 -0.837,1.004 -1.104,1.625c-0.262,0.617 -0.396,1.296 -0.396,2.037c0,0.742 0.133,1.421 0.396,2.042c0.267,0.617 0.633,1.158 1.104,1.625c0.471,0.462 1.025,0.825 1.663,1.075c0.633,0.254 1.325,0.383 2.067,0.383c0.708,0 1.367,-0.121 1.979,-0.354c0.613,-0.238 1.171,-0.613 1.675,-1.129l0.833,0.829c-0.542,0.6 -1.208,1.054 -1.996,1.358c-0.792,0.308 -1.637,0.463 -2.546,0.463" style="fill:#252947;fill-rule:nonzero;"/><path d="M214.503,101.272l-3.179,-4.487l1.412,0l3.2,4.487l-1.433,0Zm-7.137,-4.417l-0.583,-0.621l3.871,0c1.237,0 2.175,-0.267 2.817,-0.812c0.642,-0.537 0.963,-1.296 0.963,-2.275c0,-0.992 -0.321,-1.758 -0.963,-2.296c-0.642,-0.546 -1.579,-0.812 -2.817,-0.812l-3.871,0l0.583,-0.621l0,7.438Zm-1.308,4.417l0,-12.367l4.629,0c1.567,0 2.8,0.371 3.7,1.121c0.904,0.75 1.354,1.787 1.354,3.121c0,0.871 -0.204,1.621 -0.608,2.25c-0.408,0.629 -0.987,1.113 -1.742,1.45c-0.754,0.333 -1.654,0.504 -2.704,0.504l-3.904,0l0.583,-0.604l0,4.525l-1.308,0Z" style="fill:#252947;fill-rule:nonzero;"/><path d="M225.297,94.431l6.538,0l0,1.113l-6.538,0l0,-1.113Zm-1.167,6.842l0,-12.371l8.479,0l0,1.133l-7.171,0l0,10.108l7.437,0l0,1.129l-8.746,0Z" style="fill:#252947;fill-rule:nonzero;"/><path d="M241.498,97.97l0.387,-1.062l7.192,0l0.388,1.062l-7.967,0Zm-2.225,3.3l5.654,-12.367l1.287,0l5.654,12.367l-1.379,0l-5.192,-11.608l0.529,0l-5.196,11.608l-1.358,0Z" style="fill:#252947;fill-rule:nonzero;"/><path d="M267.663,101.272l-3.179,-4.487l1.413,0l3.2,4.487l-1.433,0Zm-7.137,-4.417l-0.583,-0.621l3.871,0c1.238,0 2.175,-0.267 2.817,-0.812c0.642,-0.537 0.963,-1.296 0.963,-2.275c0,-0.992 -0.321,-1.758 -0.963,-2.296c-0.642,-0.546 -1.579,-0.812 -2.817,-0.812l-3.871,0l0.583,-0.621l0,7.438Zm-1.308,4.417l0,-12.367l4.629,0c1.567,0 2.8,0.371 3.7,1.121c0.904,0.75 1.354,1.787 1.354,3.121c0,0.871 -0.204,1.621 -0.608,2.25c-0.408,0.629 -0.988,1.113 -1.742,1.45c-0.754,0.333 -1.654,0.504 -2.704,0.504l-3.904,0l0.583,-0.604l0,4.525l-1.308,0Z" style="fill:#252947;fill-rule:nonzero;"/><path d="M278.455,94.431l6.538,0l0,1.113l-6.538,0l0,-1.113Zm-1.167,6.842l0,-12.371l8.479,0l0,1.133l-7.171,0l0,10.108l7.438,0l0,1.129l-8.746,0Z" style="fill:#252947;fill-rule:nonzero;"/><path d="M307.852,101.272l-5.475,-12.367l1.413,0l5.125,11.642l-0.779,0l5.158,-11.642l1.325,0l-5.475,12.367l-1.292,0Z" style="fill:#252947;fill-rule:nonzero;"/><rect x="321.705" y="88.902" width="1.308" height="12.367" style="fill:#252947;"/><path d="M334.744,101.272l0,-11.233l-4.346,0l0,-1.133l10,0l0,1.133l-4.35,0l0,11.233l-1.304,0Z" style="fill:#252947;fill-rule:nonzero;"/><path d="M347.41,97.97l0.387,-1.062l7.192,0l0.387,1.062l-7.967,0Zm-2.225,3.3l5.654,-12.367l1.287,0l5.654,12.367l-1.379,0l-5.192,-11.608l0.529,0l-5.196,11.608l-1.358,0Z" style="fill:#252947;fill-rule:nonzero;"/><path d="M375.057,101.272l0,-12.367l1.079,0l5.65,9.646l-0.562,0l5.6,-9.646l1.079,0l0,12.367l-1.258,0l0,-10.408l0.304,0l-5.162,8.838l-0.617,0l-5.192,-8.838l0.333,0l0,10.408l-1.254,0Z" style="fill:#252947;fill-rule:nonzero;"/><path d="M402.638,100.212c0.742,0 1.429,-0.129 2.058,-0.383c0.629,-0.25 1.175,-0.612 1.642,-1.075c0.467,-0.462 0.829,-1.008 1.088,-1.625c0.258,-0.621 0.387,-1.296 0.387,-2.042c0,-0.737 -0.129,-1.421 -0.387,-2.038c-0.258,-0.621 -0.621,-1.162 -1.088,-1.625c-0.467,-0.467 -1.012,-0.825 -1.642,-1.079c-0.629,-0.254 -1.317,-0.383 -2.058,-0.383c-0.742,0 -1.433,0.129 -2.067,0.383c-0.637,0.254 -1.192,0.612 -1.663,1.079c-0.471,0.463 -0.837,1.004 -1.096,1.625c-0.258,0.617 -0.387,1.3 -0.387,2.038c0,0.733 0.129,1.408 0.387,2.029c0.258,0.629 0.625,1.175 1.096,1.637c0.471,0.463 1.025,0.825 1.663,1.075c0.633,0.254 1.325,0.383 2.067,0.383m0,1.167c-0.929,0 -1.792,-0.158 -2.587,-0.471c-0.796,-0.312 -1.483,-0.754 -2.067,-1.325c-0.583,-0.571 -1.038,-1.237 -1.363,-1.996c-0.325,-0.758 -0.483,-1.592 -0.483,-2.5c0,-0.904 0.158,-1.742 0.483,-2.5c0.325,-0.758 0.779,-1.425 1.363,-1.996c0.583,-0.571 1.267,-1.013 2.058,-1.325c0.788,-0.312 1.65,-0.467 2.596,-0.467c0.929,0 1.792,0.154 2.579,0.467c0.788,0.312 1.475,0.75 2.058,1.317c0.583,0.567 1.038,1.229 1.358,1.996c0.325,0.767 0.488,1.604 0.488,2.508c0,0.908 -0.163,1.746 -0.488,2.508c-0.321,0.767 -0.775,1.433 -1.358,1.996c-0.583,0.567 -1.271,1.004 -2.058,1.317c-0.787,0.312 -1.65,0.471 -2.579,0.471" style="fill:#252947;fill-rule:nonzero;"/><path d="M418.66,100.143l3.658,0c1.096,0 2.046,-0.217 2.85,-0.646c0.808,-0.429 1.438,-1.025 1.883,-1.783c0.446,-0.762 0.671,-1.637 0.671,-2.625c0,-1.004 -0.225,-1.879 -0.671,-2.633c-0.446,-0.754 -1.075,-1.342 -1.883,-1.775c-0.804,-0.429 -1.754,-0.642 -2.85,-0.642l-3.658,0l0,10.104Zm-1.308,1.129l0,-12.367l5.038,0c1.317,0 2.475,0.263 3.471,0.783c0.996,0.525 1.771,1.254 2.321,2.188c0.554,0.925 0.833,2 0.833,3.213c0,1.212 -0.279,2.283 -0.833,3.217c-0.55,0.929 -1.325,1.658 -2.321,2.179c-0.996,0.525 -2.154,0.787 -3.471,0.787l-5.038,0Z" style="fill:#252947;fill-rule:nonzero;"/><path d="M438.414,94.431l6.538,0l0,1.113l-6.538,0l0,-1.113Zm-1.171,6.842l0,-12.371l8.483,0l0,1.133l-7.175,0l0,10.108l7.438,0l0,1.129l-8.746,0Z" style="fill:#252947;fill-rule:nonzero;"/><path d="M462.808,101.272l-3.179,-4.487l1.413,0l3.2,4.487l-1.433,0Zm-7.137,-4.417l-0.583,-0.621l3.871,0c1.238,0 2.175,-0.267 2.817,-0.812c0.642,-0.537 0.963,-1.296 0.963,-2.275c0,-0.992 -0.321,-1.758 -0.963,-2.296c-0.642,-0.546 -1.579,-0.812 -2.817,-0.812l-3.871,0l0.583,-0.621l0,7.438Zm-1.308,4.417l0,-12.367l4.629,0c1.567,0 2.8,0.371 3.7,1.121c0.904,0.75 1.354,1.787 1.354,3.121c0,0.871 -0.204,1.621 -0.608,2.25c-0.408,0.629 -0.988,1.113 -1.742,1.45c-0.754,0.333 -1.654,0.504 -2.704,0.504l-3.904,0l0.583,-0.604l0,4.525l-1.308,0Z" style="fill:#252947;fill-rule:nonzero;"/><path d="M472.437,101.272l0,-12.367l1.079,0l8.533,10.742l-0.567,0l0,-10.742l1.287,0l0,12.367l-1.075,0l-8.517,-10.742l0.567,0l0,10.742l-1.308,0Z" style="fill:#252947;fill-rule:nonzero;"/><path d="M492.348,97.97l0.387,-1.062l7.192,0l0.387,1.062l-7.967,0Zm-2.225,3.3l5.654,-12.367l1.287,0l5.654,12.367l-1.379,0l-5.192,-11.608l0.529,0l-5.196,11.608l-1.358,0Z" style="fill:#252947;fill-rule:nonzero;"/><path d="M72.788,51.674l0,19.492l-16.85,0c-1.875,0 -3.396,1.521 -3.396,3.396l0,28.333c0,2.783 -3.158,4.387 -5.404,2.746l-26.892,-19.663l-18.854,-13.796c-0.875,-0.637 -1.392,-1.658 -1.392,-2.742l0,-66.033c0,-2.783 3.158,-4.387 5.4,-2.746l47.142,34.475l18.854,13.796c0.875,0.638 1.392,1.658 1.392,2.742" style="fill:#13266f;fill-rule:nonzero;"/><path d="M82.91,71.166l0,-67.758c0,-2.783 3.158,-4.388 5.404,-2.746l45.746,33.454c0.875,0.642 1.392,1.663 1.392,2.746l0,66.033c0,2.779 -3.158,4.383 -5.404,2.742l-14.842,-10.862l-32.296,-23.608Z" style="fill:#13266f;fill-rule:nonzero;"/></svg>