<?xml version="1.0" encoding="UTF-8" standalone="no"?><!DOCTYPE svg PUBLIC "-//W3C//DTD SVG 1.1//EN" "http://www.w3.org/Graphics/SVG/1.1/DTD/svg11.dtd"><svg width="100%" height="100%" viewBox="0 0 1981 1554" version="1.1" xmlns="http://www.w3.org/2000/svg" xmlns:xlink="http://www.w3.org/1999/xlink" xml:space="preserve" xmlns:serif="http://www.serif.com/" style="fill-rule:evenodd;clip-rule:evenodd;stroke-linejoin:round;stroke-miterlimit:2;"><path d="M1064.021,755.338l0,284.917l-246.292,0c-27.433,0 -49.671,22.242 -49.671,49.675l0,414.175c0,40.65 -46.167,64.088 -78.983,40.1l-393.112,-287.392l-275.625,-201.675c-12.783,-9.354 -20.338,-24.246 -20.338,-40.083l0,-965.296c0,-40.654 46.175,-64.092 78.992,-40.092l689.067,503.908l275.621,201.675c12.788,9.354 20.342,24.246 20.342,40.088" style="fill:#f3f2f3;fill-rule:nonzero;"/><path d="M1211.996,1040.268l0,-990.508c0,-40.654 46.175,-64.092 78.992,-40.092l668.717,489.037c12.792,9.354 20.35,24.25 20.35,40.096l0,965.25c0,40.663 -46.188,64.1 -79,40.087l-216.962,-158.75l-472.096,-345.121Z" style="fill:#f3f2f3;fill-rule:nonzero;"/></svg>