<?xml version="1.0" encoding="UTF-8" standalone="no"?><!DOCTYPE svg PUBLIC "-//W3C//DTD SVG 1.1//EN" "http://www.w3.org/Graphics/SVG/1.1/DTD/svg11.dtd"><svg width="100%" height="100%" viewBox="0 0 335 263" version="1.1" xmlns="http://www.w3.org/2000/svg" xmlns:xlink="http://www.w3.org/1999/xlink" xml:space="preserve" xmlns:serif="http://www.serif.com/" style="fill-rule:evenodd;clip-rule:evenodd;stroke-linejoin:round;stroke-miterlimit:2;"><path d="M179.675,127.55l0,48.112l-41.587,0c-4.633,0 -8.388,3.754 -8.388,8.387l0,69.938c0,6.867 -7.8,10.825 -13.342,6.771l-66.379,-48.529l-46.542,-34.054c-2.162,-1.579 -3.438,-4.096 -3.438,-6.767l0,-163.004c0,-6.867 7.8,-10.825 13.342,-6.771l116.358,85.092l46.542,34.054c2.158,1.583 3.433,4.096 3.433,6.771" style="fill:#f3f2f3;fill-rule:nonzero;"/><path d="M204.663,175.664l0,-167.258c0,-6.867 7.796,-10.825 13.338,-6.771l112.925,82.579c2.158,1.579 3.433,4.096 3.433,6.771l0,162.996c0,6.867 -7.8,10.825 -13.338,6.767l-36.637,-26.804l-79.721,-58.279Z" style="fill:#f3f2f3;fill-rule:nonzero;"/></svg>