<?xml version="1.0" encoding="UTF-8" standalone="no"?><!DOCTYPE svg PUBLIC "-//W3C//DTD SVG 1.1//EN" "http://www.w3.org/Graphics/SVG/1.1/DTD/svg11.dtd"><svg width="100%" height="100%" viewBox="0 0 1649 224" version="1.1" xmlns="http://www.w3.org/2000/svg" xmlns:xlink="http://www.w3.org/1999/xlink" xml:space="preserve" xmlns:serif="http://www.serif.com/" style="fill-rule:evenodd;clip-rule:evenodd;stroke-miterlimit:10;"><path d="M549.928,202.592l-116.525,-140.85l5.092,137.492l-23.654,0l6.242,-178.296l7.967,0l116.525,140.85l-5.092,-137.496l23.654,0l-6.242,178.3l-7.967,0Z" style="fill:#13266f;fill-rule:nonzero;stroke:#13266f;stroke-width:4.17px;"/><path d="M706.642,33.779c-12.975,0 -24.458,3.229 -34.138,9.604c-9.717,6.408 -17.446,15.525 -22.971,27.104c-5.579,11.683 -8.408,25.571 -8.408,41.275c0,15.708 2.792,29.6 8.3,41.296c5.442,11.575 13.167,20.683 22.946,27.075c9.75,6.383 21.283,9.617 34.271,9.617c12.983,0 24.517,-3.233 34.271,-9.617c9.779,-6.392 17.504,-15.542 22.946,-27.188c5.508,-11.779 8.3,-25.633 8.3,-41.183c0,-15.542 -2.792,-29.354 -8.296,-41.054c-5.446,-11.571 -13.175,-20.725 -22.967,-27.208c-9.762,-6.45 -21.287,-9.721 -34.254,-9.721m0,168.812c-12.717,0 -24.746,-2.308 -35.763,-6.862c-11.012,-4.55 -20.754,-11.021 -28.967,-19.238c-8.212,-8.208 -14.688,-17.954 -19.233,-28.967c-4.554,-11.004 -6.867,-23.037 -6.867,-35.762c0,-12.717 2.312,-24.75 6.867,-35.763c4.55,-11.012 11.025,-20.758 19.233,-28.967c8.204,-8.204 17.946,-14.675 28.967,-19.233c11.017,-4.554 23.046,-6.862 35.763,-6.862c12.712,0 24.742,2.308 35.767,6.862c11.017,4.562 20.763,11.029 28.967,19.233c8.2,8.204 14.671,17.95 19.229,28.967c4.554,11.025 6.867,23.058 6.867,35.763c0,12.717 -2.312,24.75 -6.867,35.762c-4.554,11.017 -11.025,20.763 -19.229,28.967c-8.212,8.213 -17.954,14.683 -28.967,19.238c-11.025,4.554 -23.054,6.862 -35.767,6.862" style="fill:#13266f;fill-rule:nonzero;"/><path d="M706.642,33.779c-12.975,0 -24.458,3.229 -34.138,9.604c-9.717,6.408 -17.446,15.525 -22.971,27.104c-5.579,11.683 -8.408,25.571 -8.408,41.275c0,15.708 2.792,29.6 8.3,41.296c5.442,11.575 13.167,20.683 22.946,27.075c9.75,6.383 21.283,9.617 34.271,9.617c12.983,0 24.517,-3.233 34.271,-9.617c9.779,-6.392 17.504,-15.542 22.946,-27.188c5.508,-11.779 8.3,-25.633 8.3,-41.183c0,-15.542 -2.792,-29.354 -8.296,-41.054c-5.446,-11.571 -13.175,-20.725 -22.967,-27.208c-9.762,-6.45 -21.287,-9.721 -34.254,-9.721Zm0,168.812c-12.717,0 -24.746,-2.308 -35.763,-6.862c-11.012,-4.55 -20.754,-11.021 -28.967,-19.238c-8.212,-8.208 -14.688,-17.954 -19.233,-28.967c-4.554,-11.004 -6.867,-23.037 -6.867,-35.762c0,-12.717 2.312,-24.75 6.867,-35.763c4.55,-11.012 11.025,-20.758 19.233,-28.967c8.204,-8.204 17.946,-14.675 28.967,-19.233c11.017,-4.554 23.046,-6.862 35.763,-6.862c12.712,0 24.742,2.308 35.767,6.862c11.017,4.562 20.763,11.029 28.967,19.233c8.2,8.204 14.671,17.95 19.229,28.967c4.554,11.025 6.867,23.058 6.867,35.763c0,12.717 -2.312,24.75 -6.867,35.762c-4.554,11.017 -11.025,20.763 -19.229,28.967c-8.212,8.213 -17.954,14.683 -28.967,19.238c-11.025,4.554 -23.054,6.862 -35.767,6.862Z" style="fill:none;fill-rule:nonzero;stroke:#13266f;stroke-width:4.17px;"/><path d="M900.087,202.592l-79.413,-178.3l25.754,0l63.642,145.004l53.387,-145.004l25.913,0l-79.413,178.3l-9.871,0Z" style="fill:#13266f;fill-rule:nonzero;stroke:#13266f;stroke-width:4.17px;"/><path d="M1031.638,199.235l0,-174.942l80.225,0l0,19.333l-45.967,-6.042c-4.583,-0.596 -8.217,-1.008 -10.867,-1.225l0,65.763c2.604,-0.113 6.321,-0.317 11.108,-0.608l43.083,-2.625l0,18.558l-43.083,-2.625c-4.787,-0.296 -8.504,-0.496 -11.108,-0.608l0,72.971c2.767,-0.208 6.483,-0.625 11.096,-1.237l46.458,-6.042l0,19.329l-80.946,0Z" style="fill:#13266f;fill-rule:nonzero;stroke:#13266f;stroke-width:4.17px;"/><path d="M1206.776,202.592c-6.567,0 -14.371,-0.829 -23.183,-2.458c-8.742,-1.617 -17.204,-3.75 -25.158,-6.35l-2.708,-0.888l2.042,-20.412l5.975,0l1,0.871c5.9,5.146 12.646,9.208 20.058,12.079c7.375,2.863 14.771,4.312 21.975,4.312c9.921,0 18,-2.721 24.017,-8.088c5.979,-5.342 8.883,-12.358 8.883,-21.458c0,-5 -1.113,-9.696 -3.317,-13.958c-2.267,-4.379 -6.108,-8.95 -11.417,-13.583c-5.479,-4.788 -13.163,-10.058 -22.821,-15.671c-6.908,-4.013 -13.612,-8.304 -19.929,-12.758c-6.562,-4.625 -12.021,-10.092 -16.229,-16.242c-4.388,-6.4 -6.612,-14.129 -6.612,-22.983c0,-13.183 4.858,-23.975 14.446,-32.079c9.404,-7.954 21.871,-11.987 37.058,-11.987c6.562,0 13.717,0.704 21.263,2.096c7.767,1.437 13.658,3.238 18.013,5.496l2.108,1.092l-1.7,19.025l-6.229,0l-1.054,-1.146c-8.492,-9.233 -19.092,-13.721 -32.4,-13.721c-9.333,0 -16.879,2.346 -22.433,6.971c-5.433,4.529 -8.075,10.504 -8.075,18.263c0,5.846 1.462,10.692 4.471,14.812c3.192,4.375 7.383,8.375 12.462,11.883c5.312,3.675 11.108,7.287 17.229,10.738c7.267,4.2 14.4,8.687 21.237,13.35c7.138,4.871 13.1,10.792 17.721,17.6c4.783,7.046 7.208,15.904 7.208,26.329c0,9.575 -2.275,18.142 -6.758,25.471c-4.487,7.333 -10.896,13.138 -19.046,17.258c-8.062,4.071 -17.517,6.137 -28.096,6.137" style="fill:#13266f;fill-rule:nonzero;"/><path d="M1206.776,202.592c-6.567,0 -14.371,-0.829 -23.183,-2.458c-8.742,-1.617 -17.204,-3.75 -25.158,-6.35l-2.708,-0.888l2.042,-20.412l5.975,0l1,0.871c5.9,5.146 12.646,9.208 20.058,12.079c7.375,2.863 14.771,4.312 21.975,4.312c9.921,0 18,-2.721 24.017,-8.088c5.979,-5.342 8.883,-12.358 8.883,-21.458c0,-5 -1.113,-9.696 -3.317,-13.958c-2.267,-4.379 -6.108,-8.95 -11.417,-13.583c-5.479,-4.788 -13.163,-10.058 -22.821,-15.671c-6.908,-4.013 -13.612,-8.304 -19.929,-12.758c-6.562,-4.625 -12.021,-10.092 -16.229,-16.242c-4.388,-6.4 -6.612,-14.129 -6.612,-22.983c0,-13.183 4.858,-23.975 14.446,-32.079c9.404,-7.954 21.871,-11.987 37.058,-11.987c6.562,0 13.717,0.704 21.263,2.096c7.767,1.437 13.658,3.238 18.013,5.496l2.108,1.092l-1.7,19.025l-6.229,0l-1.054,-1.146c-8.492,-9.233 -19.092,-13.721 -32.4,-13.721c-9.333,0 -16.879,2.346 -22.433,6.971c-5.433,4.529 -8.075,10.504 -8.075,18.263c0,5.846 1.462,10.692 4.471,14.812c3.192,4.375 7.383,8.375 12.462,11.883c5.312,3.675 11.108,7.287 17.229,10.738c7.267,4.2 14.4,8.687 21.237,13.35c7.138,4.871 13.1,10.792 17.721,17.6c4.783,7.046 7.208,15.904 7.208,26.329c0,9.575 -2.275,18.142 -6.758,25.471c-4.487,7.333 -10.896,13.138 -19.046,17.258c-8.062,4.071 -17.517,6.137 -28.096,6.137Z" style="fill:none;fill-rule:nonzero;stroke:#13266f;stroke-width:4.17px;"/><path d="M1350.84,202.592c-6.571,0 -14.371,-0.829 -23.179,-2.458c-8.746,-1.617 -17.208,-3.754 -25.163,-6.35l-2.704,-0.888l2.042,-20.412l5.971,0l1,0.871c5.896,5.142 12.642,9.204 20.058,12.079c7.375,2.863 14.771,4.312 21.975,4.312c10.062,0 17.921,-2.642 24.021,-8.088c5.979,-5.342 8.883,-12.358 8.883,-21.458c0,-4.992 -1.117,-9.692 -3.321,-13.958c-2.258,-4.375 -6.096,-8.942 -11.412,-13.587c-5.483,-4.788 -13.167,-10.058 -22.825,-15.667c-6.933,-4.029 -13.642,-8.321 -19.925,-12.758c-6.558,-4.625 -12.017,-10.087 -16.233,-16.242c-4.388,-6.404 -6.612,-14.138 -6.612,-22.983c0,-13.183 4.858,-23.975 14.446,-32.079c9.404,-7.954 21.871,-11.987 37.058,-11.987c6.567,0 13.717,0.704 21.263,2.096c7.771,1.437 13.662,3.238 18.013,5.496l2.108,1.092l-1.692,19.025l-6.237,0l-1.054,-1.146c-8.488,-9.233 -19.088,-13.721 -32.4,-13.721c-9.329,0 -16.875,2.346 -22.433,6.971c-5.433,4.529 -8.075,10.504 -8.075,18.263c0,5.837 1.467,10.687 4.475,14.817c3.183,4.371 7.375,8.367 12.463,11.879c5.329,3.688 11.125,7.3 17.225,10.738c7.279,4.208 14.408,8.692 21.242,13.35c7.129,4.867 13.092,10.788 17.717,17.6c4.783,7.05 7.213,15.908 7.213,26.329c0,9.575 -2.275,18.142 -6.758,25.471c-4.487,7.333 -10.896,13.142 -19.05,17.258c-8.054,4.071 -17.513,6.137 -28.096,6.137" style="fill:#13266f;fill-rule:nonzero;"/><path d="M1350.84,202.592c-6.571,0 -14.371,-0.829 -23.179,-2.458c-8.746,-1.617 -17.208,-3.754 -25.163,-6.35l-2.704,-0.888l2.042,-20.412l5.971,0l1,0.871c5.896,5.142 12.642,9.204 20.058,12.079c7.375,2.863 14.771,4.312 21.975,4.312c10.062,0 17.921,-2.642 24.021,-8.088c5.979,-5.342 8.883,-12.358 8.883,-21.458c0,-4.992 -1.117,-9.692 -3.321,-13.958c-2.258,-4.375 -6.096,-8.942 -11.412,-13.587c-5.483,-4.788 -13.167,-10.058 -22.825,-15.667c-6.933,-4.029 -13.642,-8.321 -19.925,-12.758c-6.558,-4.625 -12.017,-10.087 -16.233,-16.242c-4.388,-6.404 -6.612,-14.138 -6.612,-22.983c0,-13.183 4.858,-23.975 14.446,-32.079c9.404,-7.954 21.871,-11.987 37.058,-11.987c6.567,0 13.717,0.704 21.263,2.096c7.771,1.437 13.662,3.238 18.013,5.496l2.108,1.092l-1.692,19.025l-6.237,0l-1.054,-1.146c-8.488,-9.233 -19.088,-13.721 -32.4,-13.721c-9.329,0 -16.875,2.346 -22.433,6.971c-5.433,4.529 -8.075,10.504 -8.075,18.263c0,5.837 1.467,10.687 4.475,14.817c3.183,4.371 7.375,8.367 12.463,11.879c5.329,3.688 11.125,7.3 17.225,10.738c7.279,4.208 14.408,8.692 21.242,13.35c7.129,4.867 13.092,10.788 17.717,17.6c4.783,7.05 7.213,15.908 7.213,26.329c0,9.575 -2.275,18.142 -6.758,25.471c-4.487,7.333 -10.896,13.142 -19.05,17.258c-8.054,4.071 -17.513,6.137 -28.096,6.137Z" style="fill:none;fill-rule:nonzero;stroke:#13266f;stroke-width:4.17px;"/><path d="M1536.297,33.779c-12.971,0 -24.463,3.229 -34.142,9.608c-9.717,6.404 -17.446,15.521 -22.971,27.1c-5.579,11.692 -8.408,25.579 -8.408,41.275c0,15.7 2.792,29.596 8.3,41.296c5.442,11.571 13.162,20.679 22.946,27.075c9.75,6.383 21.283,9.617 34.275,9.617c12.983,0 24.517,-3.233 34.267,-9.617c9.783,-6.392 17.508,-15.542 22.946,-27.183c5.512,-11.779 8.304,-25.633 8.304,-41.188c0,-15.546 -2.792,-29.358 -8.3,-41.05c-5.442,-11.575 -13.171,-20.729 -22.967,-27.212c-9.758,-6.45 -21.283,-9.721 -34.25,-9.721m0,168.812c-12.721,0 -24.75,-2.308 -35.767,-6.862c-11.008,-4.55 -20.75,-11.021 -28.967,-19.238c-8.212,-8.208 -14.688,-17.954 -19.233,-28.967c-4.55,-10.996 -6.862,-23.029 -6.862,-35.762c0,-12.721 2.308,-24.758 6.862,-35.763c4.55,-11.012 11.025,-20.758 19.233,-28.967c8.208,-8.204 17.95,-14.675 28.967,-19.233c11.017,-4.554 23.046,-6.862 35.767,-6.862c12.713,0 24.742,2.308 35.763,6.862c11.017,4.558 20.758,11.029 28.967,19.233c8.204,8.2 14.675,17.946 19.233,28.967c4.554,11.017 6.862,23.05 6.862,35.763c0,12.725 -2.308,24.754 -6.862,35.762c-4.554,11.021 -11.029,20.767 -19.233,28.971c-8.217,8.213 -17.958,14.683 -28.967,19.233c-11.021,4.554 -23.05,6.862 -35.763,6.862" style="fill:#13266f;fill-rule:nonzero;"/><path d="M1536.297,33.779c-12.971,0 -24.463,3.229 -34.142,9.608c-9.717,6.404 -17.446,15.521 -22.971,27.1c-5.579,11.692 -8.408,25.579 -8.408,41.275c0,15.7 2.792,29.596 8.3,41.296c5.442,11.571 13.162,20.679 22.946,27.075c9.75,6.383 21.283,9.617 34.275,9.617c12.983,0 24.517,-3.233 34.267,-9.617c9.783,-6.392 17.508,-15.542 22.946,-27.183c5.512,-11.779 8.304,-25.633 8.304,-41.188c0,-15.546 -2.792,-29.358 -8.3,-41.05c-5.442,-11.575 -13.171,-20.729 -22.967,-27.212c-9.758,-6.45 -21.283,-9.721 -34.25,-9.721Zm0,168.812c-12.721,0 -24.75,-2.308 -35.767,-6.862c-11.008,-4.55 -20.75,-11.021 -28.967,-19.238c-8.212,-8.208 -14.688,-17.954 -19.233,-28.967c-4.55,-10.996 -6.862,-23.029 -6.862,-35.762c0,-12.721 2.308,-24.758 6.862,-35.763c4.55,-11.012 11.025,-20.758 19.233,-28.967c8.208,-8.204 17.95,-14.675 28.967,-19.233c11.017,-4.554 23.046,-6.862 35.767,-6.862c12.713,0 24.742,2.308 35.763,6.862c11.017,4.558 20.758,11.029 28.967,19.233c8.204,8.2 14.675,17.946 19.233,28.967c4.554,11.017 6.862,23.05 6.862,35.763c0,12.725 -2.308,24.754 -6.862,35.762c-4.554,11.021 -11.029,20.767 -19.233,28.971c-8.217,8.213 -17.958,14.683 -28.967,19.233c-11.021,4.554 -23.05,6.862 -35.763,6.862Z" style="fill:none;fill-rule:nonzero;stroke:#13266f;stroke-width:4.17px;"/><path d="M145.579,108.811l0,38.983l-33.696,0c-3.754,0 -6.796,3.042 -6.796,6.796l0,56.667c0,5.562 -6.317,8.767 -10.808,5.488l-53.783,-39.321l-37.713,-27.596c-1.75,-1.279 -2.783,-3.317 -2.783,-5.483l0,-132.071c0,-5.562 6.317,-8.767 10.808,-5.483l94.279,68.942l37.708,27.596c1.75,1.279 2.783,3.317 2.783,5.483" style="fill:#13266f;fill-rule:nonzero;"/><path d="M165.825,147.795l0,-135.521c0,-5.562 6.317,-8.767 10.808,-5.483l91.492,66.908c1.75,1.279 2.783,3.317 2.783,5.483l0,132.067c0,5.562 -6.317,8.771 -10.808,5.483l-29.683,-21.717l-64.592,-47.221Z" style="fill:#13266f;fill-rule:nonzero;"/></svg>